HIERARCHY
ROOT Hips
{
	OFFSET 0.00000 0.00000 0.00000
	CHANNELS 6 Xposition Yposition Zposition Yrotation Zrotation Xrotation 
	JOINT Lumbar
	{
		OFFSET 0 0 0
		CHANNELS 3 Zrotation Xrotation Yrotation
		JOINT Neck
		{
			OFFSET 0.00 0.2701 0.00
			CHANNELS 3 Zrotation Xrotation Yrotation
			End Site
			{
				OFFSET 0.00 0.1379 0.00
			}
		}
		JOINT RightShoulder
		{
			OFFSET 0.0119 0.2289 0.1181
			CHANNELS 3 Zrotation Xrotation Yrotation
			JOINT RightElbow
			{
				OFFSET 0.00 -0.1475 0.00
				CHANNELS 2 Zrotation Yrotation
				JOINT RightWrist
				{
					OFFSET 0.00 -0.1605 0.00
					CHANNELS 2 Zrotation Xrotation
					End Site
					{
						OFFSET 0.0040 -0.1068 0.0006
					}
				}
			}
		}
		JOINT LeftShoulder
		{
			OFFSET 0.0119 0.2289 -0.1181
			CHANNELS 3 Zrotation Xrotation Yrotation
			JOINT LeftElbow
			{
				OFFSET 0.00 -0.1475 0.00
				CHANNELS 2 Zrotation Yrotation
				JOINT LeftWrist
				{
					OFFSET 0.00 -0.1605 0.00
					CHANNELS 2 Zrotation Xrotation
					End Site
					{
						OFFSET 0.0040 -0.1068 -0.0006
					}
				}
			}
		}
	}
	JOINT RightHip
	{
		OFFSET 0.0316 -0.0424 0.0458
		CHANNELS 3 Zrotation Xrotation Yrotation
		JOINT RightKnee
		{
			OFFSET 0.00 -0.2438 0.00
			CHANNELS 1 Zrotation
			JOINT RightAnkle
			{
				OFFSET 0.00 -0.2449 0.00
				CHANNELS 3 Zrotation Xrotation Yrotation
				End Site
				{
					OFFSET 0.1237 -0.0542 0.0051
				}
			}
		}
	}
	JOINT LeftHip
	{
		OFFSET 0.0316 -0.0424 -0.0458
		CHANNELS 3 Zrotation Xrotation Yrotation
		JOINT LeftKnee
		{
			OFFSET 0.00 -0.2438 0.00
			CHANNELS 1 Zrotation
			JOINT LeftAnkle
			{
				OFFSET 0.00 -0.2449 0.00
				CHANNELS 3 Zrotation Xrotation Yrotation
				End Site
				{
					OFFSET 0.1237 -0.0542 -0.0051
				}
			}
		}
	}
}
MOTION
Frames: 25
Frame Time: 0.02
0.04809 0.55693 -0.14106 172.71946 0 -7.18267 -3.11589 1.63867 -48.99008 -66.57767 -44.03856 36.77228 58.15186 -36.12776 -3.48976 15.26297 82.26706 0.28789 -3.87766 57.30697 63.50721 60.7075 34.77075 -116.81893 -51.81471 6.69505 3.14887 13.69369 -46.69605 -21.97307 -6.24086 -4e-05 13.00614 11.41394 -3.20686 23.11587 -19.71496 1.18895 4.11566 14.14185
0.0485 0.5571 -0.14078 172.61203 0 -7.28438 -3.11404 1.74223 -49.52169 -66.57767 -44.14999 37.35361 57.67669 -36.45467 -3.74853 15.4977 82.20077 -0.57187 -4.38527 56.03028 62.69789 61.69394 34.84399 -117.26851 -52.2233 6.74065 3.23839 13.69369 -46.69606 -22.09389 -6.77761 -4e-05 13.00614 11.31387 -3.16503 23.29198 -19.3977 1.04643 4.08115 14.11567
0.04885 0.55732 -0.14068 172.48534 0 -7.39247 -3.10672 1.81446 -50.0465 -66.57768 -44.1151 38.14264 57.38416 -37.12146 -3.82164 15.66197 82.22184 -1.46171 -4.74481 54.73584 61.58348 62.68233 34.90822 -117.74496 -52.45239 6.79566 3.32031 13.69369 -46.69605 -22.21607 -7.42753 -3e-05 13.00614 11.14594 -3.12384 23.51172 -18.95107 0.87475 4.0434 14.06829
0.04924 0.55752 -0.14049 172.36857 0 -7.4969 -3.10412 1.90542 -50.52521 -66.57768 -44.11088 38.8105 57.02098 -37.63304 -3.95069 15.85992 82.20271 -2.30335 -5.1595 53.48132 60.6217 63.64849 34.97109 -118.18942 -52.7542 6.84395 3.4055 13.69369 -46.69605 -22.33613 -8.01093 -2e-05 13.00614 11.01325 -3.08279 23.70831 -18.57187 0.72182 4.00831 14.03101
0.0496 0.55773 -0.14036 172.24694 0 -7.60534 -3.09332 1.97749 -51.08303 -66.57769 -44.12356 39.55757 56.60389 -38.16984 -4.18709 16.05905 82.18052 -3.30444 -5.63893 52.06585 59.58111 64.71815 35.06322 -118.72052 -53.09861 6.9028 3.49283 13.69369 -46.69605 -22.46597 -8.66254 -2e-05 13.00613 10.86263 -3.03858 23.91926 -18.15782 0.54482 3.96775 13.99232
0.04999 0.55791 -0.14014 172.13157 0 -7.70678 -3.09768 2.08196 -51.52192 -66.57769 -44.11525 40.2014 56.34405 -38.7273 -4.16135 16.23628 82.18699 -3.97836 -5.94515 50.99145 58.63942 65.56629 35.09012 -119.07769 -53.30969 6.94202 3.57346 13.69369 -46.69605 -22.5746 -9.19781 -1e-05 13.00613 10.73283 -3.00172 24.10984 -17.78491 0.41159 3.93807 13.95125
0.05051 0.55799 -0.13963 172.02909 0 -7.78559 -3.14681 2.27734 -51.65833 -66.5777 -44.11803 40.51707 56.46299 -39.24731 -3.4485 16.36503 82.25741 -3.70404 -5.7847 50.86493 58.05048 65.81784 34.936 -118.93097 -53.19583 6.92202 3.63624 13.69369 -46.69605 -22.62236 -9.37647 -1e-05 13.00613 10.67903 -2.98383 24.24202 -17.5585 0.40352 3.93817 13.90982
0.05106 0.55803 -0.13902 171.93502 0 -7.85732 -3.21085 2.50745 -51.68959 -66.57769 -44.11822 40.72537 56.7362 -39.77535 -2.48145 16.47407 82.35371 -3.10428 -5.45754 51.08549 57.57349 65.84198 34.71632 -118.61065 -52.95329 6.88236 3.69246 13.69369 -46.69605 -22.64851 -9.43449 -1e-05 13.00613 10.64807 -2.97372 24.35075 -17.37746 0.44109 3.94956 13.86648
0.05158 0.55809 -0.13846 171.84308 0 -7.93331 -3.26701 2.7257 -51.77155 -66.57769 -44.11732 40.98249 56.94566 -40.3036 -1.63831 16.59417 82.4344 -2.67525 -5.22039 51.15018 57.04498 65.95806 34.52759 -118.38048 -52.76947 6.85345 3.75235 13.69369 -46.69605 -22.68546 -9.55252 -1e-05 13.00613 10.60542 -2.96097 24.46459 -17.1747 0.45974 3.95653 13.82329
0.05214 0.55815 -0.13793 171.72586 0 -8.00516 -3.32805 2.92646 -51.8378 -66.57769 -44.11794 41.24535 57.13377 -40.82714 -0.75352 16.70252 82.53264 -2.14997 -4.91762 51.20702 56.50851 66.12176 34.33327 -118.10436 -52.57879 6.81732 3.80944 13.69369 -46.69605 -22.71875 -9.65424 -1e-05 13.00613 10.56613 -2.94439 24.60305 -16.97234 0.4698 3.96042 13.7824
0.05264 0.55821 -0.13729 171.66295 0 -8.08382 -3.38203 3.17213 -51.91337 -66.57769 -44.11772 41.46914 57.40167 -41.35876 0.10297 16.83224 82.6014 -1.74895 -4.71454 51.36153 56.01884 66.13324 34.13576 -117.88164 -52.37377 6.7913 3.87049 13.69369 -46.69605 -22.75403 -9.75787 -0 13.00613 10.52592 -2.93772 24.6845 -16.78127 0.50883 3.9734 13.73655
0.05296 0.55829 -0.13636 171.75291 0 -8.18334 -3.41706 3.53483 -52.03692 -66.57769 -44.11771 41.60313 57.84236 -41.90042 0.81357 17.01986 82.56553 -1.75636 -4.82106 51.71474 55.63708 65.77067 33.93938 -117.85441 -52.16424 6.79896 3.94755 13.69369 -46.69605 -22.80387 -9.91221 -0 13.00613 10.47995 -2.95569 24.61075 -16.6139 0.61791 4.00936 13.67752
0.05322 0.55838 -0.13532 171.89626 0 -8.28986 -3.44366 3.94135 -52.1744 -66.57769 -44.11777 41.70201 58.35894 -42.44982 1.48717 17.23114 82.50228 -1.90229 -5.03534 52.15191 55.29916 65.26457 33.74309 -117.88562 -51.94487 6.81723 4.02819 13.69369 -46.69605 -22.85572 -10.06938 -0 13.00613 10.43228 -2.98347 24.48106 -16.45648 0.75447 4.054 13.61366
0.05351 0.55847 -0.13433 172.01219 0 -8.39294 -3.47145 4.32702 -52.30844 -66.57769 -44.11773 41.82147 58.84624 -43.00099 2.18016 17.4358 82.46167 -1.99422 -5.20556 52.54157 54.93862 64.83013 33.55098 -117.88637 -51.72856 6.82996 4.10498 13.69369 -46.69605 -22.90414 -10.21384 -0 13.00614 10.38408 -3.00739 24.37887 -16.29252 0.8778 4.09428 13.55213
0.05381 0.55856 -0.13335 172.14235 0 -8.4969 -3.51109 4.71801 -52.42728 -66.57769 -44.11774 41.91811 59.31698 -43.53143 2.87052 17.62218 82.37716 -2.03788 -5.35011 52.9825 54.5926 64.36017 33.33934 -117.89789 -51.5138 6.84508 4.19101 13.69369 -46.69606 -22.96246 -10.40113 -0 13.00614 10.34174 -3.02931 24.26643 -16.13776 1.00586 4.13669 13.49001
0.05406 0.55864 -0.13231 172.25468 0 -8.60072 -3.52366 5.10763 -52.58157 -66.57769 -44.11774 42.0549 59.83832 -44.10539 3.55517 17.85264 82.37951 -2.21817 -5.57467 53.33245 54.22606 63.9336 33.16854 -117.90268 -51.29492 6.85796 4.25864 13.69369 -46.69606 -23.00088 -10.503 -0 13.00614 10.28699 -3.05732 24.16324 -15.96667 1.12997 4.17659 13.42794
0.05419 0.55873 -0.13115 172.31142 0 -8.70293 -3.46502 5.4844 -52.83908 -66.57769 -44.11774 42.31509 60.4786 -44.80828 4.2239 18.19814 82.61067 -2.75271 -6.00522 53.40536 53.78593 63.6589 33.11704 -117.8792 -51.07026 6.8623 4.27551 13.69369 -46.69605 -22.98452 -10.35549 -0 13.00613 10.19408 -3.1022 24.09144 -15.73917 1.23628 4.20727 13.36791
0.05427 0.55881 -0.12994 172.34722 0 -8.80469 -3.37902 5.85757 -53.13106 -66.57769 -44.11774 42.61675 61.16659 -45.55245 4.8887 18.58742 82.93474 -3.41973 -6.51108 53.3828 53.32435 63.43473 33.10585 -117.84692 -50.84199 6.86405 4.27366 13.69369 -46.69603 -22.94816 -10.12499 -1e-05 13.00612 10.08946 -3.15234 24.03233 -15.49647 1.33738 4.23508 13.30808
0.05437 0.55889 -0.12876 172.38799 0 -8.90641 -3.30458 6.23138 -53.40165 -66.57769 -44.11774 42.8973 61.83364 -46.27093 5.55993 18.95739 83.22602 -4.02043 -6.9761 53.40602 52.87599 63.19034 33.07213 -117.81655 -50.61375 6.86693 4.27977 13.69369 -46.69602 -22.92047 -9.94138 -1e-05 13.00611 9.99288 -3.19845 23.97283 -15.26615 1.44085 4.26429 13.2476
0.05448 0.55898 -0.12757 172.44924 0 -9.00945 -3.2338 6.61184 -53.69537 -66.57769 -44.11775 43.18586 62.50115 -47.01975 6.21 19.32581 83.47086 -4.65099 -7.47357 53.42337 52.4142 62.92846 33.05578 -117.797 -50.39133 6.8704 4.28811 13.69369 -46.69601 -22.89411 -9.7187 -1e-05 13.0061 9.88466 -3.25195 23.88918 -15.01253 1.54563 4.29349 13.18894
0.05455 0.55905 -0.12637 172.46288 0 -9.1095 -3.14868 6.97591 -53.95074 -66.57769 -44.11775 43.46839 63.17698 -47.71407 6.9042 19.7074 83.84197 -5.24978 -7.91885 53.42776 51.97516 62.71786 33.01331 -117.75196 -50.15679 6.87182 4.28754 13.69369 -46.696 -22.86082 -9.5581 -1e-05 13.00609 9.79808 -3.29101 23.85892 -14.80442 1.64563 4.32179 13.12703
0.05451 0.5591 -0.12515 172.3437 0 -9.20165 -3.03356 7.30463 -54.0759 -66.57769 -44.11774 43.72115 63.87184 -48.25555 7.71525 20.11559 84.47531 -5.72127 -8.2108 53.43083 51.60059 62.62924 32.88495 -117.64009 -49.88427 6.86901 4.26487 13.69369 -46.696 -22.80793 -9.58546 -1e-05 13.00609 9.77267 -3.29021 23.97909 -14.71955 1.73753 4.34932 13.05227
0.05441 0.55913 -0.12392 172.17826 0 -9.29068 -2.90448 7.61493 -54.16384 -66.57769 -44.11773 43.9668 64.57109 -48.73869 8.57136 20.53497 85.24248 -6.15648 -8.44547 53.42181 51.25044 62.59244 32.72982 -117.50261 -49.60105 6.86409 4.2342 13.69369 -46.696 -22.7497 -9.67869 -0 13.00609 9.76974 -3.27437 24.15181 -14.68218 1.82403 4.37583 12.97482
0.05434 0.55917 -0.12271 172.038 0 -9.38101 -2.77986 7.92768 -54.27963 -66.57768 -44.11772 44.21835 65.26353 -49.24415 9.41186 20.9488 85.99294 -6.61288 -8.6997 53.41032 50.8908 62.53763 32.58924 -117.37527 -49.32596 6.85955 4.20855 13.69369 -46.696 -22.69748 -9.74442 -0 13.00609 9.75743 -3.26454 24.29654 -14.62693 1.91023 4.40207 12.90129
0.05428 0.55921 -0.12144 171.87954 0 -9.47203 -2.66206 8.26587 -54.35187 -66.57768 -44.11771 44.4616 65.98009 -49.77115 10.23471 21.3672 86.56897 -7.05583 -8.9836 53.42838 50.52222 62.46175 32.4392 -117.25278 -49.03573 6.85723 4.17652 13.69369 -46.696 -22.62964 -9.79765 0 13.00609 9.74108 -3.25847 24.45845 -14.55515 2.00751 4.43123 12.81692
